<?xml version="1.0" standalone="no"?>
<!DOCTYPE svg PUBLIC "-//W3C//DTD SVG 20010904//EN"
 "http://www.w3.org/TR/2001/REC-SVG-20010904/DTD/svg10.dtd">
<svg version="1.0" xmlns="http://www.w3.org/2000/svg"
 width="700.000000pt" height="700.000000pt" viewBox="0 0 700.000000 700.000000"
 preserveAspectRatio="xMidYMid meet">
<metadata>
Created by potrace 1.14, written by Peter Selinger 2001-2017
</metadata>
<g transform="translate(0.000000,700.000000) scale(0.100000,-0.100000)"
fill="#000000" stroke="none">
<path d="M2874 6977 l-100 -19 4 -29 c4 -26 1 -29 -22 -29 -28 0 -30 -6 -17
-65 5 -22 12 -58 15 -80 3 -22 8 -51 10 -65 6 -26 16 -88 66 -370 17 -96 33
-186 35 -200 3 -14 19 -104 35 -200 43 -248 80 -461 86 -490 2 -14 15 -89 29
-166 13 -78 26 -152 29 -165 3 -13 8 -40 11 -59 2 -19 7 -46 10 -60 3 -14 10
-54 15 -90 6 -36 13 -73 16 -84 6 -19 7 -19 94 -2 14 3 41 7 60 10 19 3 44 7
55 10 64 12 111 19 119 17 11 -2 -1 102 -24 209 -5 25 -35 189 -65 365 -30
176 -57 331 -60 345 -21 118 -52 296 -61 349 -3 18 -8 43 -10 55 -4 20 -29
165 -40 231 -3 17 -21 120 -40 230 -19 110 -37 209 -39 220 -2 11 -9 51 -16
88 l-13 68 -40 -3 c-23 -1 -86 -11 -142 -21z"/>
<path d="M3937 6904 c-10 -55 -20 -112 -23 -129 -2 -16 -9 -52 -14 -80 -4 -27
-11 -66 -15 -85 -3 -19 -15 -87 -26 -150 -22 -123 -25 -135 -39 -220 -9 -56
-12 -70 -25 -150 -4 -25 -9 -54 -11 -65 -3 -11 -7 -35 -10 -54 -3 -18 -7 -43
-10 -55 -6 -33 -53 -297 -59 -336 -5 -30 -11 -69 -40 -225 -3 -16 -9 -57 -15
-90 -5 -33 -12 -71 -15 -85 -6 -27 -7 -33 -29 -165 -20 -116 -21 -113 10 -121
21 -5 24 -11 20 -30 -7 -26 -2 -30 54 -38 19 -3 49 -8 65 -11 17 -3 44 -7 60
-10 17 -3 40 -7 52 -9 23 -5 29 12 48 132 10 62 16 98 40 232 13 74 27 153 30
175 4 22 8 47 10 55 3 8 7 32 11 54 3 21 7 46 9 55 1 9 6 36 10 61 4 25 9 54
11 65 7 34 43 238 49 275 19 113 56 322 65 365 5 28 12 64 14 80 3 17 16 98
31 180 14 83 28 162 30 178 3 15 8 42 11 60 3 17 12 66 19 107 7 41 12 77 10
78 -6 6 -192 41 -254 48 l-57 6 -17 -98z"/>
<path d="M1877 6636 c-10 -8 -78 -49 -152 -92 -74 -43 -135 -82 -135 -87 0 -4
51 -97 114 -205 62 -108 125 -217 138 -242 14 -25 76 -133 138 -240 62 -107
124 -215 138 -240 14 -25 50 -88 80 -140 30 -52 66 -115 80 -140 13 -25 51
-90 82 -145 32 -55 69 -119 82 -141 204 -361 200 -355 225 -339 21 14 24 14
35 -5 16 -25 32 -25 66 -2 15 11 73 45 130 76 56 32 102 62 102 67 0 5 -115
211 -257 457 -141 246 -265 463 -276 482 -11 19 -71 125 -135 235 -63 110
-129 225 -146 255 -166 298 -263 459 -276 459 -8 0 -23 -6 -33 -13z"/>
<path d="M5117 6623 c-2 -4 -84 -147 -182 -318 -97 -170 -181 -314 -185 -320
-4 -5 -21 -35 -37 -65 -17 -30 -81 -143 -143 -250 -62 -107 -121 -211 -132
-230 -11 -19 -29 -51 -40 -70 -11 -19 -32 -55 -46 -80 -14 -25 -55 -97 -92
-160 -36 -63 -69 -122 -73 -130 -5 -8 -13 -24 -20 -35 -47 -78 -129 -226 -126
-230 9 -8 251 -145 257 -145 4 0 82 132 174 293 92 160 239 418 328 571 88
154 160 280 160 282 0 1 18 32 40 68 22 37 53 90 69 119 16 28 79 140 141 247
165 286 153 260 128 280 -17 14 -19 20 -9 38 10 19 4 25 -84 77 -109 64 -121
69 -128 58z"/>
<path d="M922 5893 c-158 -188 -232 -278 -232 -284 0 -5 135 -121 532 -456 93
-78 192 -161 221 -186 136 -116 271 -229 357 -302 52 -43 106 -89 120 -101 14
-13 61 -53 105 -89 88 -74 90 -76 226 -192 l95 -81 104 121 c158 182 148 167
123 187 -21 17 -21 17 -2 37 22 21 64 -18 -476 438 -115 98 -234 199 -264 224
-30 25 -73 62 -96 81 -22 19 -66 56 -96 82 -29 25 -119 101 -199 168 -80 67
-156 132 -170 143 -14 12 -68 58 -120 102 -52 44 -104 88 -115 98 -11 10 -32
27 -47 38 l-26 19 -40 -47z"/>
<path d="M6030 5808 c-14 -13 -52 -45 -85 -73 -33 -27 -65 -54 -71 -60 -6 -5
-22 -19 -35 -30 -13 -11 -67 -56 -119 -100 -52 -44 -104 -87 -115 -97 -11 -9
-58 -49 -105 -88 -131 -112 -131 -112 -195 -165 -33 -27 -62 -52 -65 -55 -3
-3 -61 -52 -130 -110 -69 -57 -127 -107 -130 -110 -4 -4 -159 -135 -215 -182
-11 -9 -70 -58 -130 -110 -61 -51 -129 -108 -152 -127 l-42 -34 40 -51 c23
-28 53 -64 67 -81 15 -16 37 -42 49 -58 l21 -27 43 36 c24 20 64 53 89 74 25
21 92 78 150 127 58 48 116 98 130 110 54 45 118 100 164 138 27 22 58 48 70
58 11 10 43 37 70 60 28 23 84 71 126 107 42 36 99 83 126 105 27 22 64 54 84
71 19 17 67 57 106 90 180 151 319 269 324 274 3 3 44 38 93 78 l88 73 -38 48
c-99 124 -107 130 -133 106 -18 -16 -19 -16 -32 4 -16 26 -18 26 -48 -1z"/>
<path d="M290 4917 c-12 -32 -29 -77 -70 -192 -12 -33 -25 -69 -30 -80 -4 -11
-19 -50 -32 -86 l-25 -66 321 -117 c177 -65 380 -139 451 -166 138 -51 336
-123 655 -240 107 -39 211 -77 230 -85 19 -7 87 -33 150 -56 63 -23 116 -43
118 -44 2 -2 -457 -3 -1020 -2 l-1023 0 -6 -49 c-5 -40 -5 -453 0 -475 0 -3
431 -5 956 -5 524 1 951 -2 947 -5 -4 -3 -108 -43 -232 -89 -256 -94 -361
-132 -615 -225 -99 -37 -220 -82 -270 -100 -49 -18 -166 -61 -260 -95 -93 -34
-213 -78 -265 -97 -119 -43 -150 -55 -150 -58 0 -1 13 -37 29 -81 15 -43 59
-165 96 -270 l69 -192 65 25 c77 29 774 286 936 345 61 22 151 54 200 73 212
77 422 154 450 164 l30 11 -30 -26 c-36 -31 -182 -156 -250 -213 -29 -24 -225
-189 -255 -215 -105 -88 -157 -132 -166 -141 -6 -5 -30 -26 -54 -45 -24 -19
-59 -49 -79 -66 -20 -17 -88 -75 -151 -129 -63 -53 -137 -116 -165 -140 -27
-23 -86 -73 -130 -110 -44 -37 -81 -71 -83 -76 -2 -4 85 -114 193 -243 l196
-236 132 112 c73 61 170 143 216 182 46 39 105 89 131 111 25 22 70 60 100 85
29 25 58 50 64 55 6 6 34 28 61 50 28 22 55 45 60 51 6 6 54 47 107 92 54 45
110 92 125 105 15 14 73 62 128 107 55 46 111 93 124 104 l24 21 -13 -25 c-7
-14 -31 -53 -52 -88 -21 -34 -38 -64 -38 -66 0 -2 -28 -52 -63 -112 -35 -60
-77 -134 -94 -164 -16 -30 -148 -262 -293 -515 -145 -252 -265 -466 -266 -475
-3 -10 36 -40 122 -95 161 -102 439 -254 447 -244 3 3 304 530 360 629 158
281 400 700 403 698 1 -2 -1 -23 -6 -48 -11 -52 -67 -371 -73 -415 -10 -65
-38 -222 -47 -265 -5 -25 -11 -58 -14 -75 -8 -56 -47 -280 -56 -320 -5 -22
-11 -60 -15 -85 -3 -25 -8 -52 -10 -60 -2 -8 -7 -34 -10 -57 -3 -23 -12 -75
-20 -115 -7 -40 -11 -75 -9 -78 5 -4 79 -21 154 -36 14 -2 31 -7 39 -9 39 -14
187 -41 281 -50 36 -4 67 -9 70 -10 3 -2 40 -7 82 -10 l75 -7 7 47 c4 26 9 56
12 68 5 27 35 196 39 222 4 29 16 94 21 119 2 11 7 41 10 66 3 25 8 48 10 52
3 4 7 26 10 50 3 24 9 63 14 88 8 40 16 85 34 195 3 17 12 71 21 120 9 50 27
152 40 229 13 76 26 140 28 143 3 2 8 -16 11 -40 9 -60 15 -94 26 -152 5 -27
21 -117 35 -200 14 -82 27 -159 29 -170 26 -141 46 -257 50 -285 3 -19 13 -73
21 -120 14 -73 37 -207 59 -340 16 -90 16 -90 49 -90 18 0 64 5 102 11 72 10
121 16 190 25 22 2 82 14 133 25 52 12 99 22 105 23 101 19 167 40 167 52 0 8
-6 47 -14 87 -8 40 -26 142 -41 227 -30 174 -30 173 -51 290 -8 47 -26 148
-39 225 -13 77 -35 205 -49 285 -14 79 -26 149 -26 154 0 6 126 -210 280 -478
154 -269 280 -490 280 -491 0 -1 20 -37 46 -78 45 -76 54 -82 89 -57 6 4 81
44 168 89 87 46 229 129 315 187 86 57 161 105 166 107 6 2 -10 37 -33 78 -24
41 -53 92 -66 114 -12 22 -66 117 -120 210 -54 94 -108 188 -121 210 -12 22
-70 123 -128 224 -58 101 -105 185 -103 187 2 2 351 -290 557 -466 25 -21 63
-53 85 -72 22 -18 54 -45 70 -60 17 -14 63 -54 104 -88 l75 -62 64 69 c194
208 225 246 391 472 l84 115 -35 30 c-19 17 -83 72 -142 121 -60 50 -116 97
-125 106 -9 8 -43 37 -76 65 -33 27 -65 54 -71 59 -6 6 -81 69 -167 140 -145
121 -185 161 -137 135 26 -14 918 -340 930 -340 6 0 10 5 10 11 0 8 55 145
133 329 6 14 11 27 12 30 1 3 4 12 8 20 3 8 15 49 27 90 12 41 25 86 30 100
16 47 71 252 68 254 -4 2 -194 72 -398 147 -80 28 -156 57 -170 62 -14 6 -29
11 -35 13 -31 8 -181 66 -187 72 -4 4 184 6 417 5 234 -1 425 1 426 5 0 4 2
18 4 32 24 197 24 504 0 785 -2 22 -4 61 -6 88 l-3 47 -1108 0 -1108 0 4 -22
c2 -13 18 -77 35 -143 52 -197 59 -359 26 -610 -2 -16 -21 -84 -43 -150 -107
-330 -332 -602 -630 -767 -102 -56 -312 -132 -393 -143 -96 -13 -182 -20 -249
-20 -77 0 -249 13 -259 20 -4 2 -49 15 -102 29 -125 33 -302 117 -413 196
-106 77 -248 219 -313 315 -26 39 -51 72 -55 75 -4 3 -32 59 -63 124 -47 101
-83 204 -101 293 -2 12 -8 33 -13 45 -16 47 -21 267 -8 426 l8 92 -26 0 c-16
0 -25 6 -25 16 0 13 7 15 33 10 24 -4 34 -3 34 6 1 28 58 188 99 276 24 51 44
97 44 101 0 5 -57 30 -127 55 -71 26 -150 56 -178 66 -68 25 -211 78 -450 165
-110 40 -303 111 -430 158 -126 46 -356 130 -510 187 -154 56 -294 108 -312
115 -31 13 -32 12 -43 -18z"/>
</g>
</svg>
