<svg xmlns="http://www.w3.org/2000/svg" id="logo" style="background-color:#FFF" viewBox="22.84 17.47 63.94 64.27"><path stroke="black" fill="" stroke-width="1" d="M56.09, 36.84L59.37, 17.98L61.26, 18.32L57.97, 37.17L56.09, 36.84"/><path stroke="black" fill="#000" stroke-width="1" d="M46.16, 40.18L44.22, 42.45L29.79, 30.19L31.7, 27.89L46.16, 40.18"/><path stroke="black" fill="#000" stroke-width="1" d="M71.38, 22.42L61.94, 38.96L60.38, 38.06L69.83, 21.51L71.38, 22.42"/><path stroke="black" fill="#000" stroke-width="1" d="M78.52, 28.57L79.51, 29.78L65.1, 42.01L64.1, 40.81L78.52, 28.57"/><path stroke="black" fill="" stroke-width="1" d="M42.38, 46.71L42.88, 45.06L43.59, 43.5L25.88, 36.97L24.71, 40.2L42.38, 46.71"/><path stroke="black" fill="" stroke-width="1" d="M67.57, 49.59L67.38, 47.43L66.84, 45.33L86, 45.33L86.28, 49.5L86.07, 53.12L75.8, 53.12L85.46, 56.68L84.48, 60.11L83.12, 63.42L72.11, 59.36L81.11, 66.99L79.1, 69.74L76.82, 72.26L66.76, 63.71L73.34, 75.25L70.65, 77.02L67.8, 78.52L60.63, 65.94L63.12, 80.23L60.32, 80.86L57.43, 81.24L54.75, 65.84L52.07, 81.23L49.31, 80.87L46.63, 80.27L49.5, 63.79L41.28, 78.27L39.03, 77.07L36.88, 75.68L45.63, 60.27L32.22, 71.67L29.23, 68.05L43.58, 55.85L26, 62.33L24.56, 58.28L42.24, 51.76L42.82, 53.96L43.75, 55.98L45.01, 57.79L46.55, 59.36L48.33, 60.64L50.33, 61.6L52.5, 62.21L54.81, 62.42L57.38, 62.16L59.78, 61.41L61.94, 60.23L63.83, 58.66L65.39, 56.76L66.56, 54.59L67.31, 52.18L67.57, 49.59"/><path stroke="black" fill="" stroke-width="1" d="M42.06, 49.59L42.18, 51.37L23.4, 51.37L23.34, 49.5L23.41, 47.51L42.23, 47.51L42.06, 49.59"/><path stroke="black" fill="" stroke-width="1" d="M47.42, 39.15L49.63, 37.88L40.18, 21.3L37.98, 22.59L47.42, 39.15"/><path stroke="black" fill="" stroke-width="1" d="M48.26, 18.34L50.35, 17.97L53.64, 36.83L51.55, 37.2L48.26, 18.34"/></svg>